<?xml version="1.0" encoding="UTF-8"?>
<svg width="132px" height="43px" viewBox="0 0 132 43" version="1.1" xmlns="http://www.w3.org/2000/svg" xmlns:xlink="http://www.w3.org/1999/xlink">
    <title>Logo</title>
    <g id="Logo" stroke="none" stroke-width="1" fill="none" fill-rule="evenodd">
        <path d="M55.6836461,27 C57.1313673,27 58.1447721,26.7411143 58.7238606,26.2233429 C59.3029491,25.7055716 59.5924933,24.8496638 59.5924933,23.6556196 C59.5924933,22.2819404 59.2600536,21.3626321 58.5951743,20.8976945 C58.0697051,20.5278578 57.0831099,20.3429395 55.6353887,20.3429395 L55.6353887,20.3429395 L50.4879357,20.1527378 C50.0160858,20.1527378 49.689008,20.1051873 49.5067024,20.0100865 C49.2600536,19.8832853 49.1367292,19.6191162 49.1367292,19.2175793 C49.1367292,18.8160423 49.2520107,18.5439481 49.4825737,18.4012968 C49.7131367,18.2586455 50.0482574,18.1873199 50.4879357,18.1873199 L50.4879357,18.1873199 L55.1689008,18.1873199 C55.7372654,18.1873199 56.1152815,18.2533622 56.3029491,18.3854467 C56.4906166,18.5175312 56.5844504,18.7579251 56.5844504,19.1066282 L56.5844504,19.1066282 L59.5764075,19.1066282 C59.5764075,18.049952 59.2225201,17.2680115 58.5147453,16.7608069 C57.8069705,16.2536023 56.7292225,16 55.2815013,16 L55.2815013,16 L50.1823056,16 C48.6702413,16 47.5951743,16.2403939 46.9571046,16.7211816 C46.3190349,17.2019693 46,18.0235351 46,19.185879 C46,20.4961575 46.3217158,21.3573487 46.9651475,21.7694524 C47.5120643,22.1181556 48.6219839,22.2925072 50.2949062,22.2925072 L50.2949062,22.2925072 L54.7506702,22.4668588 C55.5013405,22.4668588 56.0214477,22.5725264 56.310992,22.7838617 C56.5576408,22.9634966 56.6809651,23.2646494 56.6809651,23.6873199 C56.6809651,24.1099904 56.538874,24.4005764 56.2546917,24.5590778 C55.9705094,24.7175793 55.5067024,24.79683 54.8632708,24.79683 L54.8632708,24.79683 L50.2144772,24.79683 C49.8069705,24.79683 49.4772118,24.7122959 49.2252011,24.5432277 C48.9731903,24.3741595 48.847185,24.1522574 48.847185,23.8775216 L48.847185,23.8775216 L46.0160858,23.8775216 C46.0160858,24.9658982 46.308311,25.7584054 46.8927614,26.2550432 C47.4772118,26.7516811 48.4879357,27 49.924933,27 L49.924933,27 L55.6836461,27 Z M64.0482574,27 L64.0482574,23.7348703 L69.1957105,23.7348703 C70.7077748,23.7348703 71.7613941,23.4786263 72.3565684,22.9661383 C72.9517426,22.4536503 73.2493298,21.5581172 73.2493298,20.2795389 L73.2493298,20.2795389 L73.2493298,19.518732 C73.2493298,18.2507205 72.922252,17.3472622 72.2680965,16.8083573 C71.613941,16.2694524 70.5308311,16 69.0187668,16 L69.0187668,16 L61.2654155,16 L61.2654155,27 L64.0482574,27 Z M69.1474531,21.1037464 L64.0482574,21.1037464 L64.0482574,18.6311239 L69.0831099,18.6311239 C69.5978552,18.6311239 69.9571046,18.715658 70.1608579,18.8847262 C70.3646113,19.0537944 70.4664879,19.3496638 70.4664879,19.7723343 L70.4664879,19.7723343 L70.4664879,19.9942363 C70.4664879,20.4063401 70.3672922,20.6942843 70.1689008,20.8580692 C69.9705094,21.021854 69.6300268,21.1037464 69.1474531,21.1037464 L69.1474531,21.1037464 Z M77.383378,27 L77.383378,22.4193084 L84.541555,22.4193084 L84.541555,27 L87.3243968,27 L87.3243968,16 L84.541555,16 L84.541555,20.2161383 L77.383378,20.2161383 L77.383378,16 L74.5844504,16 L74.5844504,27 L77.383378,27 Z M101.174263,27 L101.174263,24.79683 L92.0697051,24.79683 L92.0697051,22.4193084 L100.884718,22.4193084 L100.884718,20.2161383 L92.0697051,20.2161383 L92.0697051,18.1873199 L101.174263,18.1873199 L101.174263,16 L89.3029491,16 L89.3029491,27 L101.174263,27 Z M105.887399,27 L105.887399,23.7190202 L111.372654,23.7190202 C112.63807,23.7190202 113.270777,24.2420749 113.270777,25.2881844 L113.270777,25.2881844 L113.270777,27 L116.053619,27 L116.053619,24.7175793 C116.053619,24.0835735 115.967828,23.6054275 115.796247,23.2831412 C115.624665,22.9608549 115.367292,22.7415946 115.024129,22.6253602 C115.38874,22.414025 115.632708,22.1340058 115.756032,21.7853026 C115.879357,21.4365994 115.941019,20.9346782 115.941019,20.2795389 L115.941019,20.2795389 L115.941019,19.518732 C115.941019,18.2507205 115.613941,17.3472622 114.959786,16.8083573 C114.30563,16.2694524 113.22252,16 111.710456,16 L111.710456,16 L103.088472,16 L103.088472,27 L105.887399,27 Z M111.839142,21.1037464 L105.839142,21.1037464 L105.839142,18.6311239 L111.774799,18.6311239 C112.300268,18.6311239 112.662198,18.7130163 112.86059,18.8768012 C113.058981,19.040586 113.158177,19.339097 113.158177,19.7723343 L113.158177,19.7723343 L113.158177,19.9942363 C113.158177,20.4169068 113.061662,20.7074928 112.868633,20.8659942 C112.675603,21.0244957 112.33244,21.1037464 111.839142,21.1037464 L111.839142,21.1037464 Z M130,27 L130,24.79683 L120.895442,24.79683 L120.895442,22.4193084 L129.710456,22.4193084 L129.710456,20.2161383 L120.895442,20.2161383 L120.895442,18.1873199 L130,18.1873199 L130,16 L118.128686,16 L118.128686,27 L130,27 Z" id="SPHERE" fill="#000000" fill-rule="nonzero"></path>
        <path d="M19.1671665,0.87329901 L38.5747345,11.6385264 L35.347764,32.2010134 L19.2216433,42.1806037 L0.443286662,30 L0.443286662,10 L19.1671665,0.87329901 Z M31.2312867,32.364299 L10.0342867,33.851299 L19.2216433,39.8207933 L31.2312867,32.364299 Z M22.3892867,11.977299 L8.95328979,31.7954034 C20.7195427,30.9420066 28.2912165,30.3928393 31.6683113,30.1479014 L22.3892867,11.977299 Z M2.49128666,16.955299 L2.49222712,28.9507435 L6.82328666,31.765299 L2.49128666,16.955299 Z M24.0202867,10.591299 L33.5922867,29.425299 L36.0942867,12.975299 L24.0202867,10.591299 Z M21.0102867,10.176299 L3.02828666,11.708299 L8.18628666,29.216299 L21.0102867,10.176299 Z M20.6402867,3.94029901 L22.8382867,8.26629901 L31.4722867,9.98329901 L20.6402867,3.94029901 Z M18.1472867,3.66729901 L6.22828666,9.41329901 L20.4432867,8.16529901 L18.1472867,3.66729901 Z" id="Combined-Shape" fill="#000000"></path>
    </g>
</svg>